<?xml version="1.0" standalone="no"?><!DOCTYPE svg PUBLIC "-//W3C//DTD SVG 1.1//EN" "http://www.w3.org/Graphics/SVG/1.1/DTD/svg11.dtd"><svg t="1567870824370" class="icon" viewBox="0 0 1024 1024" version="1.1" xmlns="http://www.w3.org/2000/svg" p-id="3759" width="145" height="145" xmlns:xlink="http://www.w3.org/1999/xlink"><defs><style type="text/css"></style></defs><path d="M800 1024a224 224 0 1 1 0-448 224 224 0 0 1 0 448z m96-256h-64v-64h-64v128h128v-64z m-384 32c0 91.008 43.072 171.2 108.992 224H0V0h896v529.664A284.48 284.48 0 0 0 800 512 288 288 0 0 0 512 800zM192 576h256V512H192v64z m512-448H192v64h512V128z m0 192H192v64h512V320z" p-id="3760" fill="#d84a38"></path></svg>