<?xml version="1.0" standalone="no"?><!DOCTYPE svg PUBLIC "-//W3C//DTD SVG 1.1//EN" "http://www.w3.org/Graphics/SVG/1.1/DTD/svg11.dtd"><svg t="1567870814872" class="icon" viewBox="0 0 1106 1024" version="1.1" xmlns="http://www.w3.org/2000/svg" p-id="3587" xmlns:xlink="http://www.w3.org/1999/xlink" width="162.01171875" height="150"><defs><style type="text/css"></style></defs><path d="M1080.132749 329.60688l-58.537396-58.435226c-16.192747-16.191531-45.046075-13.59714-64.454748 5.916137L516.747262 717.475053c-19.513276 19.411106-22.107667 48.26565-5.916137 64.454748L569.266351 840.470845c16.19518 16.088145 45.049724 13.493753 64.563-6.019522L1074.11201 394.166231c19.514492-19.514492 22.213486-48.36782 6.020739-64.559351zM613.692107 894.752369l2.076243 1.764867-183.195886 96.734424h370.645211c27.609042 0 49.818879-22.316873 49.818878-49.821312V660.080989L626.563109 885.51692c-4.04545 3.94328-8.511744 6.226296-12.871002 9.235449zM453.018651 756.917583c3.633121-9.652643 8.718517-19.097298 16.918885-27.193063l383.099017-381.331718V71.579898c0-27.504439-22.31444-49.820095-49.818878-49.820096H105.731476c-27.504439 0-49.820095 22.315656-49.820096 49.820096v871.747064c0 27.609042 22.315656 49.821312 49.820096 49.821312h246.401482l98.602677-238.306934 2.283016 2.076243zM180.461619 96.489945h523.115865c27.609042 0 49.818879 13.700526 49.818879 30.722798 0 17.021055-22.31444 30.618195-49.818879 30.618195H180.461619c-27.504439 0-49.820095-13.700526-49.820096-30.618195 0-17.022271 22.315656-30.722798 49.820096-30.722798z m0 164.094939h523.115865c27.609042 0 49.818879 14.426664 49.818879 32.175073 0 17.748409-22.31444 32.176289-49.818879 32.176289H180.461619c-27.504439 0-49.820095-14.42788-49.820096-32.176289s22.315656-32.175073 49.820096-32.175073z m0 234.257834c-27.504439 0-49.820095-14.946029-49.820096-33.212586 0-18.267774 22.315656-33.213802 49.820096-33.213802h323.830619c27.504439 0 49.820095 14.842642 49.820095 33.213802s-22.315656 33.212586-49.820095 33.212586h-323.830619z m281.483538 290.618033L367.909727 1002.282769l209.351435-106.698443-115.316005-110.123575z" fill="#b97612" p-id="3588"></path></svg>