<?xml version="1.0" standalone="no"?><!DOCTYPE svg PUBLIC "-//W3C//DTD SVG 1.1//EN" "http://www.w3.org/Graphics/SVG/1.1/DTD/svg11.dtd"><svg t="1567870779051" class="icon" viewBox="0 0 1024 1024" version="1.1" xmlns="http://www.w3.org/2000/svg" p-id="3059" width="150" height="150" xmlns:xlink="http://www.w3.org/1999/xlink"><defs><style type="text/css"></style></defs><path d="M959.872 191.488H537.344c-16.768 0-31.872-6.272-44.672-19.072l-68.096-68.096c-10.24-12.8-27.776-19.072-44.672-19.072H64.128C27.776 85.248 0 113.024 0 149.376v725.248c0 36.352 27.776 64.128 64.128 64.128h896.128c36.352 0 64.128-27.776 63.616-64.128V255.616c0.128-36.352-27.648-64.128-64-64.128z m-272.768 424.96h-89.728v127.872c0 23.552-19.072 42.624-42.624 42.624h-85.248c-23.552 0-42.624-19.072-42.624-42.624v-127.872h-98.048c-38.144 0-57.344-42.624-31.872-70.4l179.2-192c8.064-8.832 20.992-12.8 31.872-12.8 12.8 0 23.04 3.968 31.872 12.8l178.944 192c23.936 25.856 4.864 70.4-31.744 70.4z" p-id="3060" fill="#1296db"></path></svg>